<svg width="50" height="45" viewBox="0 0 109 45" fill="none" xmlns="http://www.w3.org/2000/svg">
<path d="M14.1289 32.0344H17.5872V25.7745H23.7523C24.5208 25.7745 24.9051 26.1477 24.9051 26.8941V32.0344H28.3633V27.5848C28.3633 26.4361 28.1615 25.5321 27.7578 24.8705C27.3541 24.2113 26.7023 23.7266 25.7976 23.4213C26.6245 23.0384 27.2568 22.3937 27.6994 21.4825C28.142 20.5737 28.3609 19.4686 28.3609 18.1672V17.7939H24.9026V18.4531C24.9026 19.8878 24.5865 20.9517 23.9517 21.64C23.317 22.3283 22.3271 22.6748 20.9847 22.6748H17.5848V15.1814H14.1289V32.0344ZM32.7409 16.6743C33.3757 16.6743 33.8937 16.4828 34.2974 16.0999C34.7011 15.717 34.903 15.2202 34.903 14.607C34.903 13.9939 34.706 13.4971 34.312 13.1142C33.918 12.7313 33.3951 12.5398 32.7409 12.5398C32.0867 12.5398 31.5882 12.7313 31.1845 13.1142C30.7807 13.4971 30.5789 13.9939 30.5789 14.607C30.5789 15.2202 30.7807 15.717 31.1845 16.0999C31.5882 16.4828 32.1062 16.6743 32.7409 16.6743ZM88.3776 29.1068H82.9032C82.1347 29.1068 81.7504 28.7336 81.7504 27.9871V21.8436C81.7504 21.0972 82.1347 20.7239 82.9032 20.7239H88.3776C89.1461 20.7239 89.5304 21.0972 89.5304 21.8436V27.9871C89.5304 28.7336 89.1461 29.1068 88.3776 29.1068ZM84.8901 32.4367C85.9456 32.4367 86.8576 32.2694 87.6285 31.935C88.397 31.6006 89.0975 31.0698 89.7322 30.3403V32.0344H92.9886V17.7939H89.7322V19.488C89.0975 18.7609 88.397 18.2302 87.6285 17.8933C86.86 17.5589 85.948 17.3916 84.8901 17.3916C82.7183 17.3916 81.0281 18.0751 79.8194 19.4443C78.6083 20.8136 78.0051 22.6361 78.0051 24.9142C78.0051 27.1922 78.6107 29.0147 79.8194 30.384C81.0305 31.7532 82.7208 32.4367 84.8901 32.4367ZM74.5177 32.0344H77.4847V28.9905H74.3718C73.6032 28.9905 73.219 28.6172 73.219 27.8708V20.8354H77.4823V17.7915H73.219V14.7185H70.0501V16.5846C70.0501 17.3892 69.6659 17.7915 68.8973 17.7915H66.9663V20.8354H69.7607V27.3813C69.7607 28.8354 70.179 29.9744 71.0132 30.7984C71.8498 31.6224 73.0147 32.0319 74.5128 32.0319M53.9114 32.0319H60.7113C64.6097 32.0319 66.5602 30.6433 66.5602 27.8684C66.5602 26.6057 66.1808 25.6436 65.422 24.982C64.6632 24.3228 63.4108 23.8672 61.6622 23.6176L58.7803 23.1862C57.9534 23.0529 57.4159 22.9123 57.1679 22.7694C56.9174 22.6264 56.7933 22.3719 56.7933 22.0084V21.7491C56.7933 21.4243 56.8809 21.1892 57.0535 21.0463C57.2262 20.9033 57.5229 20.8306 57.9461 20.8306H65.6093V17.7867H59.2715C57.3113 17.7867 55.8327 18.1453 54.8331 18.8627C53.8336 19.58 53.335 20.6488 53.335 22.0641C53.335 23.2904 53.7241 24.2283 54.5024 24.8778C55.2806 25.5297 56.5526 25.9878 58.3206 26.2568L61.115 26.6591C61.7108 26.7366 62.1413 26.8117 62.4112 26.8893C62.6787 26.9668 62.8636 27.0711 62.9584 27.2043C63.0533 27.3376 63.1019 27.5291 63.1019 27.7787V28.0647C63.1019 28.3894 63.0095 28.6245 62.8271 28.7675C62.6447 28.9105 62.3529 28.9832 61.9491 28.9832H53.9114V32.0271V32.0319ZM37.3447 32.0319H40.803V21.8387C40.803 21.0923 41.1872 20.7191 41.9557 20.7191H46.9973C47.7658 20.7191 48.15 21.0923 48.15 21.8387V32.0319H51.6083V22.3283C51.6083 20.8354 51.1146 19.6382 50.1248 18.7391C49.135 17.84 47.7196 17.3892 45.8761 17.3892C44.7623 17.3892 43.7481 17.571 42.8361 17.9345C41.9241 18.298 41.1799 18.8142 40.6036 19.4855V17.7915H37.3471V32.0319H37.3447ZM31.0069 32.0319H34.4652V17.7939H31.0069V32.0344V32.0319Z" fill="#261E1E"/>
</svg>
